<?xml version="1.0" standalone="no"?>
<!DOCTYPE svg PUBLIC "-//W3C//DTD SVG 20010904//EN"
 "http://www.w3.org/TR/2001/REC-SVG-20010904/DTD/svg10.dtd">
<svg version="1.0" xmlns="http://www.w3.org/2000/svg"
 width="652.000000pt" height="652.000000pt" viewBox="0 0 652.000000 652.000000"
 preserveAspectRatio="xMidYMid meet">
<metadata>
Created by potrace 1.11, written by Peter Selinger 2001-2013
</metadata>
<g transform="translate(0.000000,652.000000) scale(0.100000,-0.100000)"
fill="#000000" stroke="none">
<path d="M3233 5673 c9 -15 -14 -31 -40 -28 -13 1 -23 -3 -23 -8 0 -5 -8 -3
-17 4 -15 12 -16 12 -8 -1 8 -13 7 -13 -10 0 -11 9 -16 10 -11 3 4 -7 3 -13
-1 -13 -5 0 -15 6 -22 13 -9 8 -12 8 -7 0 9 -16 -15 -22 -38 -11 -14 8 -17 7
-11 -3 6 -9 2 -11 -13 -7 -12 4 -24 2 -27 -3 -3 -5 -19 -7 -35 -5 -19 2 -27
-1 -23 -7 4 -6 0 -8 -10 -4 -10 3 -17 2 -17 -3 0 -5 -7 -7 -15 -4 -9 4 -15 0
-15 -7 0 -11 -3 -11 -10 1 -5 8 -10 10 -10 4 0 -7 -7 -15 -16 -18 -9 -3 -12
-2 -9 4 4 6 -9 2 -28 -9 -26 -15 -37 -17 -46 -8 -9 9 -11 8 -6 -5 7 -17 -3
-23 -27 -19 -5 0 -8 -4 -8 -10 0 -6 -7 -9 -15 -5 -9 3 -15 0 -15 -8 0 -17 -35
-48 -44 -39 -4 4 -4 0 0 -10 3 -10 1 -17 -6 -17 -6 0 -9 -4 -6 -9 4 -5 0 -12
-6 -14 -10 -4 -9 -6 1 -6 11 -1 11 -4 1 -16 -9 -10 -9 -15 -1 -15 6 0 10 -3
10 -7 -4 -24 3 -45 21 -63 12 -12 15 -20 8 -21 -7 0 -2 -5 11 -10 15 -6 21
-14 17 -25 -3 -8 -2 -12 4 -9 11 7 100 -53 100 -67 0 -4 6 -8 13 -8 6 0 27
-14 45 -31 17 -16 32 -26 32 -22 0 4 4 4 8 -2 4 -5 30 -26 57 -45 28 -19 56
-40 63 -47 7 -7 18 -13 24 -13 9 0 28 -14 85 -60 7 -6 17 -10 24 -10 6 0 9 -7
6 -15 -4 -8 -1 -17 5 -21 7 -5 8 -2 3 6 -5 8 -3 11 6 8 8 -3 13 -11 11 -17 -1
-7 1 -10 6 -7 11 6 62 -16 62 -26 0 -5 7 -8 16 -8 9 0 12 -5 8 -12 -5 -9 -2
-9 9 1 9 7 17 9 17 4 0 -6 15 -14 33 -19 24 -8 32 -15 31 -32 -1 -12 3 -19 7
-16 5 3 7 10 4 15 -9 13 12 11 44 -6 16 -8 31 -11 35 -8 3 4 6 2 6 -3 0 -5 12
-9 28 -8 15 1 35 -3 45 -8 12 -6 17 -5 17 4 0 8 5 5 11 -5 8 -14 14 -16 25 -6
11 9 14 9 14 0 0 -7 4 -9 10 -6 5 3 29 0 52 -6 24 -7 46 -12 51 -11 4 1 7 -2
7 -7 0 -5 10 -11 23 -13 12 -2 21 -9 20 -16 -2 -6 2 -12 7 -12 6 0 10 6 10 13
1 7 6 5 14 -5 7 -10 20 -18 27 -18 8 0 26 -11 41 -24 14 -14 30 -22 34 -18 5
4 2 -2 -6 -12 -10 -14 -11 -17 -2 -12 15 9 45 -12 36 -25 -3 -5 0 -8 8 -7 7 2
12 -3 11 -9 -2 -7 3 -12 10 -10 6 1 11 -6 11 -15 -1 -9 4 -15 10 -12 15 5 49
-22 42 -34 -3 -5 2 -9 11 -8 9 0 18 -5 21 -13 3 -9 0 -11 -9 -6 -8 5 -11 4 -6
-1 8 -9 12 -10 40 -13 8 -1 7 -4 -3 -11 -13 -9 -13 -10 0 -10 8 0 24 -14 35
-30 11 -16 23 -30 28 -30 4 0 7 -7 7 -15 0 -8 5 -15 10 -15 6 0 10 -7 10 -15
0 -8 5 -15 11 -15 5 0 8 -4 5 -9 -3 -5 0 -11 7 -14 6 -3 20 -19 30 -36 15 -26
16 -30 2 -25 -11 5 -14 2 -8 -12 4 -12 3 -15 -5 -10 -8 4 -12 1 -12 -10 0 -10
-3 -15 -6 -11 -4 3 -15 -4 -25 -16 -10 -12 -18 -18 -19 -12 0 5 -7 -1 -16 -13
-8 -12 -20 -20 -25 -17 -5 4 -9 2 -9 -2 0 -5 -9 -14 -21 -21 -12 -8 -18 -9
-15 -3 4 5 2 13 -4 16 -6 4 -10 3 -9 -2 4 -26 -5 -33 -84 -62 -22 -9 -34 -7
-55 5 -25 15 -25 15 -8 0 11 -9 18 -16 15 -17 -2 -1 -28 -3 -57 -5 -41 -4 -52
-2 -46 8 5 10 4 10 -6 1 -13 -12 -46 -1 -61 20 -3 5 -9 8 -13 8 -22 -3 -35 1
-53 18 -12 11 -24 17 -29 13 -4 -4 -5 0 -2 9 5 12 1 15 -17 12 -17 -4 -28 3
-45 27 -22 31 -22 32 -3 26 13 -4 25 0 34 11 10 14 10 16 0 6 -16 -14 -41 -6
-41 12 0 9 8 12 21 10 12 -3 18 -1 15 3 -4 4 -12 8 -17 8 -5 1 -12 2 -16 3 -4
0 2 8 13 17 10 8 13 13 7 9 -9 -4 -13 1 -13 15 0 12 4 19 8 16 9 -5 10 69 1
78 -6 7 -39 -22 -81 -73 l-27 -32 -63 62 c-35 34 -62 65 -61 69 1 4 -9 5 -22
2 -30 -5 -30 -8 -4 -69 31 -72 32 -85 7 -77 -11 3 -26 7 -32 9 -40 8 -66 18
-66 26 0 5 -3 8 -7 8 -23 -4 -43 2 -38 11 3 6 1 10 -4 10 -6 0 -11 -5 -11 -10
0 -7 -6 -7 -19 -1 -14 8 -20 7 -25 -4 -3 -8 -1 -17 5 -20 5 -4 6 -11 3 -17 -4
-6 -3 -8 2 -5 5 3 34 -17 63 -44 29 -27 57 -49 61 -49 4 0 10 -7 14 -15 6 -16
-14 -16 -26 0 -4 6 -8 2 -8 -8 0 -10 -4 -16 -9 -12 -5 3 -12 1 -16 -5 -4 -6
-11 -8 -16 -5 -5 4 -9 1 -9 -4 0 -6 -6 -11 -14 -11 -8 0 -23 -8 -35 -17 -21
-17 -21 -19 -4 -33 10 -8 36 -17 58 -19 22 -1 43 -8 47 -15 6 -8 8 -8 8 2 0
18 31 15 46 -5 11 -14 13 -15 9 -2 -5 12 1 15 22 14 36 -2 59 -15 108 -60 22
-20 53 -43 68 -51 15 -8 25 -19 22 -23 -2 -5 3 -8 13 -7 10 0 16 -5 14 -14 -2
-8 0 -12 3 -8 4 4 24 -1 44 -11 20 -10 51 -22 69 -26 18 -3 30 -10 27 -15 -3
-4 4 -6 15 -3 11 3 20 1 20 -3 0 -20 235 -21 267 -1 6 4 23 8 37 9 14 1 26 6
26 11 0 4 5 5 10 2 6 -3 10 -1 10 6 0 8 4 8 15 -1 13 -11 14 -10 10 2 -4 11 2
18 19 22 14 3 26 11 26 17 0 6 10 8 23 5 12 -3 16 -3 9 0 -16 7 3 34 24 34 8
0 14 7 14 16 0 11 6 15 20 11 11 -3 23 0 27 5 3 7 1 8 -5 4 -7 -4 -12 -2 -12
5 0 7 10 9 27 6 27 -5 27 -5 8 10 -20 15 -20 15 2 10 16 -4 20 -1 16 11 -4 10
-2 13 5 8 7 -4 12 -1 13 6 0 7 4 4 8 -7 5 -12 4 -23 -3 -27 -6 -5 -7 -8 -1 -8
6 0 10 -28 10 -64 1 -42 -3 -62 -10 -58 -6 4 -6 1 1 -9 12 -16 11 -110 -1
-129 -5 -9 -4 -11 3 -6 7 4 12 3 12 -3 0 -5 -5 -13 -10 -16 -7 -4 -8 -11 -2
-18 5 -7 8 -24 6 -39 -1 -16 2 -28 8 -28 7 0 7 -4 -1 -13 -6 -8 -9 -16 -7 -18
10 -10 13 -69 4 -69 -5 0 -2 -7 7 -16 13 -14 14 -19 3 -25 -10 -7 -10 -9 2 -9
13 0 13 -1 0 -10 -8 -5 -10 -10 -4 -10 6 0 11 -6 11 -12 0 -7 3 -32 7 -55 5
-29 4 -43 -3 -43 -6 0 -11 -5 -11 -10 0 -6 5 -9 12 -8 8 2 12 -8 12 -24 -1
-16 3 -28 9 -28 5 0 3 -8 -4 -17 -10 -11 -10 -14 -1 -9 17 10 15 -4 -5 -28
-10 -12 -11 -15 -3 -8 18 15 28 15 27 0 -2 -31 17 -98 27 -98 6 0 4 -5 -4 -10
-8 -5 -10 -10 -5 -10 6 0 3 -5 -5 -11 -11 -8 -9 -9 10 -3 14 3 22 3 18 -1 -4
-4 -3 -17 2 -30 6 -15 4 -27 -3 -35 -10 -10 -8 -12 6 -7 19 7 24 -9 5 -16 -8
-4 -7 -6 3 -6 27 -1 41 -51 14 -51 -19 0 -66 51 -58 63 4 6 1 7 -6 3 -9 -6 -8
-12 4 -26 16 -18 16 -18 -4 -13 -12 3 -24 9 -27 14 -3 5 -16 9 -29 9 -13 0
-27 5 -31 12 -5 7 -3 8 6 3 9 -6 11 -4 5 5 -6 10 -4 12 11 6 10 -4 15 -4 11 0
-4 4 -1 14 6 23 6 9 -5 3 -25 -12 -33 -24 -38 -26 -39 -10 0 10 -3 13 -6 6 -2
-7 -9 -13 -14 -13 -6 0 -7 6 -3 13 5 8 2 8 -9 -2 -14 -11 -17 -11 -17 0 0 11
-2 11 -10 -1 -7 -11 -10 -11 -10 -2 0 7 -4 10 -10 7 -5 -3 -10 0 -10 7 0 8 -3
9 -8 3 -4 -6 -28 -10 -54 -10 -27 0 -48 -3 -48 -7 0 -5 -3 -7 -7 -6 -16 3 -83
-15 -83 -23 0 -4 -9 -6 -20 -4 -11 2 -19 -1 -17 -8 1 -7 -4 -11 -10 -9 -7 1
-13 -3 -13 -9 0 -6 -7 -8 -16 -5 -8 3 -12 2 -9 -4 3 -6 -5 -14 -19 -20 -14 -5
-26 -14 -26 -20 0 -6 -4 -8 -10 -5 -5 3 -10 -1 -10 -9 0 -9 -7 -13 -20 -11
-11 2 -19 1 -19 -3 3 -22 -3 -32 -21 -32 -11 0 -19 -6 -18 -12 2 -7 -5 -12
-14 -12 -9 1 -14 -4 -12 -11 3 -7 -5 -20 -18 -29 -12 -9 -18 -16 -13 -16 6 0
3 -4 -5 -9 -8 -6 -19 -7 -25 -3 -5 4 -17 7 -25 7 -9 0 -15 9 -14 23 1 21 -9
22 -12 1 -1 -5 -2 -11 -3 -13 0 -3 -13 1 -27 9 -15 7 -32 11 -39 8 -22 -8 -27
-35 -9 -48 11 -8 14 -17 9 -26 -7 -12 -6 -12 7 -1 14 11 18 10 30 -7 8 -12 18
-18 23 -13 4 4 5 -1 2 -11 -4 -10 -7 -20 -7 -23 0 -2 -7 -1 -15 2 -8 4 -12 11
-9 18 3 6 -1 4 -8 -6 -16 -19 -48 -26 -67 -14 -10 7 -12 6 -6 -4 6 -10 3 -12
-13 -8 -14 4 -20 2 -15 -5 4 -6 -2 -8 -15 -5 -12 3 -22 2 -24 -3 -2 -5 -21
-10 -43 -13 -49 -4 -97 -26 -92 -40 2 -6 21 -12 43 -13 21 0 74 -2 117 -3 42
-2 77 -6 77 -9 0 -3 -9 -12 -20 -18 -16 -11 -21 -10 -30 5 -9 14 -10 13 -5 -8
6 -25 6 -25 -11 -5 -13 15 -15 16 -11 3 4 -11 -3 -22 -20 -33 -17 -12 -23 -13
-18 -4 5 8 -1 6 -12 -4 -11 -9 -23 -17 -27 -17 -4 0 -12 -5 -19 -10 -7 -6 -21
-17 -31 -24 -15 -10 -17 -16 -8 -32 6 -10 12 -14 12 -8 0 6 10 11 23 10 12 -1
24 2 27 6 3 4 26 9 51 11 25 2 50 6 55 9 8 5 54 18 82 24 6 1 12 -3 12 -9 0
-7 4 -6 10 3 5 8 12 11 17 7 9 -9 -35 -46 -54 -47 -7 0 -13 -4 -13 -10 0 -5
-7 -10 -16 -10 -8 0 -12 -4 -9 -10 3 -5 0 -10 -7 -10 -8 0 -15 -11 -16 -24 -1
-18 3 -23 21 -22 12 0 25 4 28 8 3 5 18 9 35 10 16 1 38 8 50 15 11 7 24 10
27 7 4 -4 12 -2 19 4 7 5 22 12 33 14 11 1 23 7 26 11 3 4 22 9 42 10 20 1 39
8 42 15 3 7 10 10 16 6 8 -4 9 -3 5 4 -3 6 3 16 15 22 11 7 18 14 16 17 -8 8
74 83 84 77 5 -3 6 3 2 12 -5 13 -3 16 10 11 9 -3 19 -1 23 5 4 7 3 8 -4 4 -7
-4 -12 -4 -12 0 0 12 98 103 104 97 3 -4 6 2 6 12 0 18 1 18 15 -1 14 -18 14
-18 8 4 -4 16 -1 22 11 22 9 0 16 4 16 9 0 5 8 7 19 4 10 -3 22 0 25 6 7 11
18 8 83 -21 23 -10 41 -24 39 -31 -1 -6 -1 -9 1 -4 7 11 33 8 33 -4 0 -5 4 -8
9 -4 5 3 16 -1 24 -9 8 -8 17 -12 21 -9 3 4 6 1 6 -6 0 -7 6 -11 13 -9 6 3 19
-3 27 -12 16 -17 23 -50 11 -50 -4 0 -8 -14 -9 -31 -1 -17 -7 -40 -12 -50 -6
-10 -10 -22 -9 -26 4 -21 -2 -33 -13 -27 -7 4 -8 3 -4 -5 4 -6 2 -19 -6 -28
-11 -14 -11 -16 1 -9 9 6 12 4 9 -5 -3 -8 -10 -14 -16 -14 -5 0 -14 -4 -19 -8
-4 -5 -3 -7 4 -5 11 3 13 -1 13 -23 0 -8 -6 -7 -17 2 -14 10 -13 8 2 -10 19
-23 19 -24 1 -17 -16 5 -17 4 -6 -9 7 -8 8 -15 3 -15 -5 0 -10 -10 -11 -22 -6
-56 -20 -90 -36 -81 -7 4 -7 2 1 -7 9 -10 8 -18 -4 -36 -8 -13 -12 -24 -8 -24
5 0 0 -9 -10 -20 -10 -11 -15 -20 -10 -20 4 0 2 -7 -5 -15 -7 -8 -9 -15 -4
-15 5 0 4 -4 -2 -8 -6 -4 -16 -20 -21 -37 -6 -16 -17 -30 -25 -29 -8 1 -15 -5
-15 -12 0 -7 4 -11 9 -8 4 3 3 -6 -4 -20 -6 -14 -15 -26 -20 -26 -4 0 -7 -3
-6 -7 4 -12 -42 -83 -53 -83 -6 0 -7 -4 -4 -10 3 -5 1 -10 -4 -10 -6 0 -11 -5
-11 -11 0 -7 -11 -22 -24 -34 -14 -13 -22 -26 -18 -31 4 -4 -1 -4 -10 -1 -11
4 -15 2 -12 -7 3 -7 -2 -16 -11 -20 -9 -3 -14 -10 -10 -15 3 -5 -4 -12 -15
-16 -11 -3 -20 -10 -20 -15 0 -17 -33 -41 -48 -35 -11 4 -12 2 -5 -7 6 -9 2
-20 -14 -35 -13 -12 -23 -19 -23 -16 0 4 -6 -2 -14 -12 -8 -12 -19 -16 -31
-11 -15 5 -16 4 -5 -9 12 -15 4 -21 -23 -16 -5 1 -6 -3 -3 -8 4 -5 2 -12 -4
-16 -5 -3 -10 0 -11 7 0 7 -4 3 -9 -10 -5 -12 -16 -22 -25 -22 -8 0 -15 -5
-15 -11 0 -5 -4 -8 -9 -5 -5 3 -11 -1 -15 -9 -3 -8 -12 -15 -20 -15 -8 0 -16
-6 -19 -12 -3 -10 -9 -10 -25 -1 -16 9 -23 10 -28 1 -4 -6 -3 -8 4 -4 6 3 13
2 17 -4 3 -5 -5 -14 -19 -20 -14 -5 -26 -15 -26 -21 0 -8 -5 -8 -16 1 -12 11
-15 11 -12 -1 2 -8 -3 -13 -9 -12 -7 2 -13 -2 -13 -9 0 -6 -3 -9 -6 -5 -3 3
-16 -3 -28 -14 -11 -11 -29 -18 -38 -15 -10 2 -16 1 -13 -3 2 -5 -7 -13 -21
-20 -20 -9 -24 -9 -18 1 4 7 -2 5 -13 -5 -12 -10 -27 -20 -35 -22 -7 -1 -24
-6 -38 -11 -14 -4 -25 -6 -26 -3 0 2 -9 -4 -19 -14 -10 -10 -26 -16 -37 -14
-10 3 -22 -2 -28 -11 -5 -10 -10 -13 -10 -8 0 5 -8 2 -17 -5 -12 -10 -15 -10
-9 -1 4 7 -9 3 -29 -8 -20 -11 -33 -15 -29 -8 6 10 5 10 -8 0 -13 -10 -17 -10
-21 0 -3 8 -6 5 -7 -7 l-1 -20 -15 20 -16 20 4 -20 c2 -16 -2 -20 -24 -19 -16
0 -28 -4 -28 -9 0 -5 -9 -7 -19 -4 -10 2 -25 1 -32 -4 -8 -5 -17 -3 -21 4 -5
8 -8 6 -8 -6 0 -13 -5 -17 -17 -13 -10 3 -25 1 -33 -4 -10 -6 -21 -4 -35 8
-16 14 -17 14 -7 1 10 -14 7 -16 -24 -17 -20 -1 -46 -4 -57 -8 -13 -4 -17 -2
-13 5 4 6 2 11 -3 11 -6 0 -11 -4 -11 -10 0 -5 -5 -10 -11 -10 -5 0 -7 6 -3
13 4 6 -1 4 -12 -5 -15 -13 -23 -15 -31 -7 -8 8 -17 8 -32 0 -16 -9 -21 -9
-21 1 0 9 -3 9 -11 1 -9 -9 -18 -8 -36 4 -21 14 -23 14 -17 -1 5 -12 2 -15
-10 -10 -10 4 -15 13 -12 21 3 8 1 11 -4 8 -6 -3 -10 -14 -11 -23 0 -10 -3
-12 -5 -5 -3 7 -12 9 -21 6 -12 -5 -14 -2 -9 8 4 8 1 6 -6 -3 -9 -10 -19 -13
-27 -8 -10 6 -9 10 5 19 11 6 14 11 7 11 -6 0 -19 -8 -29 -17 -10 -10 -18 -18
-18 -17 -1 0 -11 6 -23 13 -16 8 -23 8 -23 1 0 -7 -5 -8 -12 -3 -7 4 -21 6
-30 5 -10 -2 -18 3 -18 10 0 9 -3 9 -10 -2 -6 -10 -10 -11 -10 -3 0 15 -21 13
-32 -2 -5 -6 -8 -5 -8 4 0 7 -6 11 -14 8 -7 -3 -25 1 -40 8 -15 8 -24 9 -20 4
4 -7 -1 -9 -12 -7 -11 2 -18 11 -16 21 2 9 -2 17 -8 17 -5 0 -9 -3 -9 -8 3
-20 -3 -23 -18 -11 -15 12 -16 12 -8 -1 7 -12 6 -13 -6 -3 -8 6 -17 11 -22 11
-24 1 -66 15 -62 21 2 5 -7 6 -22 3 -19 -4 -24 -2 -18 8 6 9 4 11 -5 5 -7 -4
-16 -2 -21 6 -7 12 -9 12 -9 0 0 -11 -4 -10 -16 5 -8 10 -12 13 -9 6 6 -12 3
-12 -16 -1 -13 7 -28 12 -32 11 -5 -1 -23 5 -40 14 -18 9 -39 20 -47 24 -8 5
-14 13 -13 19 2 6 -1 11 -6 11 -5 0 -8 17 -6 38 2 20 4 37 5 37 5 0 18 89 19
133 1 16 5 21 14 16 9 -5 9 -4 0 6 -14 15 -5 43 11 33 8 -5 8 -3 0 8 -9 12
-11 34 -4 42 3 2 7 47 9 90 1 16 5 26 9 23 7 -4 9 100 3 125 -1 8 -42 22 -55
20 -5 -1 -13 4 -17 11 -7 11 -9 11 -9 0 0 -7 -4 -10 -10 -7 -5 3 -10 0 -10 -7
0 -9 -3 -9 -10 2 -8 13 -10 12 -10 -3 0 -10 -4 -16 -9 -12 -6 3 -14 -3 -20
-12 -6 -10 -11 -15 -11 -11 0 4 -11 -3 -23 -15 -46 -43 -99 -82 -112 -82 -8 0
-17 -4 -22 -9 -4 -5 -3 -6 4 -2 6 3 14 2 18 -4 3 -5 2 -10 -4 -10 -5 0 -22
-11 -37 -25 -15 -14 -33 -25 -41 -25 -8 0 -12 -3 -10 -8 3 -4 -1 -13 -9 -20
-8 -7 -14 -10 -14 -7 0 3 -16 -13 -36 -35 -20 -22 -40 -38 -44 -35 -5 3 -11
-4 -15 -15 -4 -11 -15 -20 -26 -20 -11 0 -18 -4 -15 -9 3 -5 -1 -14 -8 -20
-19 -16 -26 -2 -15 27 6 15 13 21 21 16 9 -6 9 -3 -1 9 -12 15 -11 17 5 18 11
0 14 3 8 5 -7 3 -10 14 -7 24 3 11 9 18 13 15 5 -3 6 4 3 15 -3 11 0 20 6 20
6 0 10 3 10 8 -4 21 2 43 10 38 4 -3 7 6 5 20 -2 18 1 24 11 20 8 -3 17 0 21
6 4 6 3 8 -4 4 -6 -3 -13 -2 -17 4 -3 5 0 10 8 10 8 0 21 8 28 17 11 15 11 16
-1 5 -8 -6 -21 -12 -29 -12 -14 1 -14 2 -1 13 8 7 16 23 18 37 1 14 7 27 12
28 6 2 8 8 4 13 -3 5 -2 14 2 20 5 8 9 8 14 -1 5 -8 9 -7 13 5 5 10 3 14 -5 9
-8 -5 -9 3 -4 27 3 19 11 36 16 37 6 2 8 8 4 13 -3 5 1 9 8 9 9 0 9 3 -2 10
-10 6 -11 10 -2 10 6 0 12 11 12 24 0 14 5 28 10 31 6 3 10 15 10 25 0 10 6
21 13 23 8 4 8 6 -3 6 -10 1 -7 6 9 17 14 11 19 20 13 26 -9 9 4 64 18 78 3 3
6 12 6 20 3 25 12 64 20 84 6 15 4 17 -7 11 -11 -7 -12 -6 -3 6 11 13 26 84
16 74 -2 -2 -12 5 -21 15 -9 11 -27 22 -41 24 -25 3 -80 -21 -80 -36 0 -4 -3
-7 -7 -6 -8 3 -39 -21 -76 -57 -11 -11 -17 -14 -13 -8 5 9 2 11 -8 7 -9 -3
-14 -9 -11 -13 2 -4 -6 -16 -17 -26 -17 -14 -25 -15 -40 -6 -10 6 -21 11 -25
11 -5 0 0 -5 9 -11 9 -5 15 -16 12 -24 -4 -8 -10 -13 -14 -10 -5 3 -11 -4 -15
-15 -3 -11 -11 -20 -16 -20 -5 0 -22 -11 -37 -25 -15 -14 -32 -23 -39 -21 -7
3 -10 -1 -6 -9 3 -9 -3 -18 -13 -22 -11 -4 -32 -22 -48 -40 -16 -18 -32 -30
-36 -28 -5 3 -11 -2 -14 -11 -3 -9 -13 -14 -21 -11 -10 4 -12 1 -8 -11 3 -9 3
-14 -1 -10 -7 6 -20 -4 -108 -84 -22 -21 -44 -35 -49 -32 -5 3 -12 -2 -15 -11
-4 -9 -13 -14 -20 -11 -8 3 -11 0 -8 -8 3 -7 -1 -16 -9 -19 -12 -4 -14 2 -11
31 2 20 5 58 6 85 1 28 7 46 13 44 5 -3 9 -15 8 -28 -3 -22 -2 -23 9 -5 9 16
7 22 -9 35 -20 17 -20 46 0 35 7 -3 4 1 -5 9 -10 8 -14 17 -8 23 5 5 3 25 -5
46 -9 26 -9 36 -1 32 6 -3 1 3 -11 14 -12 11 -19 22 -16 26 4 3 -1 6 -10 6 -9
0 -24 14 -34 30 -9 17 -21 30 -25 30 -4 0 -8 5 -8 12 0 6 -7 18 -15 27 -31 31
-65 76 -65 84 0 5 -6 15 -12 22 -30 33 -38 45 -33 45 4 0 -2 12 -13 28 -34 47
-102 183 -102 202 0 10 -5 20 -11 22 -6 2 -12 15 -12 30 -1 14 -4 24 -6 22 -6
-5 -35 58 -32 69 1 4 -5 17 -13 29 -8 11 -12 27 -9 34 3 8 1 14 -4 14 -5 0 -9
8 -10 18 -1 9 -3 24 -5 32 -2 8 3 14 10 12 8 -1 11 2 7 7 -3 6 -12 8 -20 4
-13 -5 -21 19 -16 50 0 4 -2 7 -7 7 -4 0 -8 12 -9 28 -2 36 -8 60 -16 68 -12
12 -8 26 6 18 9 -6 9 -5 0 7 -7 8 -14 31 -16 50 -2 20 -7 41 -11 47 -3 6 -2
14 4 17 7 4 7 11 2 18 -13 17 -21 67 -10 67 5 0 5 8 1 18 -13 27 -8 98 7 117
11 14 11 16 -1 13 -10 -2 -14 9 -14 45 -1 26 4 47 10 47 6 0 6 3 -1 8 -6 4
-11 26 -10 50 1 32 4 41 15 37 11 -4 10 -1 -2 13 -9 10 -14 22 -10 26 4 4 8
17 10 29 1 12 5 45 8 72 4 28 7 58 7 68 -1 9 3 17 7 17 4 0 7 10 6 23 -1 12 1
31 5 43 5 11 10 33 12 50 1 16 10 35 18 42 8 8 9 11 3 7 -10 -5 -11 0 -4 18 6
14 7 28 4 31 -4 3 -1 6 5 6 6 0 9 7 6 15 -4 8 -2 15 3 15 8 0 12 15 15 58 1 6
6 12 11 12 6 0 8 3 4 6 -3 4 0 19 9 35 8 16 14 30 13 31 -7 10 15 47 23 42 7
-4 8 -2 4 5 -4 7 0 29 10 49 10 20 18 41 19 45 0 4 7 12 15 17 8 5 11 10 7 10
-5 0 -1 12 7 28 42 75 50 135 20 146 -25 10 -49 -10 -79 -66 -16 -29 -33 -56
-39 -60 -6 -4 -8 -8 -3 -8 4 0 1 -10 -8 -23 -8 -13 -12 -27 -8 -30 3 -4 -2 -7
-13 -7 -16 0 -17 -2 -4 -10 8 -5 10 -10 4 -10 -7 0 -17 -20 -23 -45 -7 -30
-16 -43 -23 -39 -6 4 -8 3 -4 -4 3 -6 1 -23 -6 -39 -6 -15 -11 -31 -10 -35 1
-5 -2 -8 -8 -8 -5 0 -7 -7 -3 -15 3 -9 -3 -25 -13 -37 -11 -12 -13 -18 -6 -14
10 6 10 1 -2 -22 -8 -16 -12 -32 -9 -36 4 -3 1 -6 -5 -6 -6 0 -9 -7 -5 -17 5
-12 3 -14 -7 -8 -9 5 -11 4 -6 -3 4 -6 0 -37 -9 -69 -9 -32 -16 -65 -17 -73 0
-8 -2 -22 -6 -30 -7 -19 -13 -49 -13 -73 0 -10 -5 -15 -12 -11 -9 5 -9 4 0 -6
12 -13 7 -40 -11 -52 -8 -5 -7 -8 1 -8 18 0 11 -40 -7 -40 -10 0 -11 -3 -3 -8
13 -8 11 -50 -2 -72 -5 -9 -4 -11 3 -6 16 9 15 -7 0 -22 -8 -8 -8 -12 -1 -12
10 0 8 -128 -2 -157 -2 -7 1 -13 7 -13 6 0 5 -6 -3 -17 -12 -15 -12 -16 1 -8
13 8 13 7 1 -8 -7 -9 -9 -17 -4 -17 6 0 9 -23 9 -50 -1 -28 2 -56 6 -63 4 -6
-1 -21 -10 -32 -16 -19 -16 -19 1 -5 17 13 19 12 17 -5 -1 -11 -1 -22 0 -25 1
-3 3 -21 5 -40 7 -59 11 -79 18 -86 3 -4 2 -16 -4 -27 -8 -14 -8 -18 0 -13 10
7 14 -8 14 -56 0 -10 3 -18 6 -18 6 0 11 -21 14 -62 1 -10 5 -18 10 -18 5 0 8
-10 7 -22 -1 -13 -1 -25 0 -28 4 -13 12 -48 17 -77 3 -18 9 -33 14 -33 5 0 9
-10 9 -23 0 -13 5 -28 11 -34 5 -5 11 -26 12 -46 1 -19 5 -33 8 -31 4 2 9 -4
12 -14 4 -9 13 -32 21 -50 9 -18 11 -30 6 -27 -5 3 -12 0 -16 -6 -4 -7 -3 -9
3 -6 6 4 19 -1 29 -9 10 -9 12 -12 4 -8 -10 5 -9 0 4 -14 11 -12 15 -22 10
-22 -5 0 -4 -4 3 -8 6 -4 13 -14 15 -22 2 -8 9 -21 16 -28 7 -8 10 -18 7 -23
-4 -5 -2 -9 4 -9 5 0 15 -16 22 -35 7 -19 17 -35 22 -35 4 0 6 -4 2 -9 -3 -5
0 -16 7 -23 15 -16 38 -55 38 -63 0 -4 -6 -3 -12 1 -8 4 -10 3 -5 -2 5 -5 14
-9 20 -9 7 -1 11 -6 10 -13 -2 -7 4 -12 13 -12 14 0 14 -3 4 -16 -8 -8 -9 -14
-4 -13 23 4 34 -3 34 -21 0 -11 6 -19 13 -17 6 1 11 -4 10 -10 -2 -7 1 -13 6
-13 14 0 20 -38 7 -44 -8 -3 -8 -5 0 -5 15 -1 6 -83 -10 -93 -7 -5 -6 -8 4 -8
13 0 13 -1 0 -10 -11 -7 -11 -10 -2 -10 7 0 10 -4 7 -10 -3 -5 -8 -26 -11 -47
-2 -20 -10 -41 -17 -45 -6 -4 -7 -8 -2 -8 6 0 11 -9 11 -20 0 -11 -3 -20 -6
-20 -4 0 -6 -15 -6 -32 1 -22 -3 -32 -12 -30 -8 1 -11 -2 -7 -8 3 -6 11 -8 16
-5 8 5 14 -29 7 -38 -2 -2 3 -11 11 -20 7 -10 10 -17 5 -18 -5 0 2 -5 16 -11
29 -13 69 -11 88 4 6 6 12 7 12 4 0 -11 44 16 59 36 8 12 19 17 29 13 9 -3 13
-3 10 1 -4 3 -1 12 5 19 9 10 15 10 26 1 12 -8 13 -8 7 2 -9 16 38 67 54 57 5
-3 10 0 10 7 0 23 36 48 50 35 8 -9 9 -7 4 7 -6 15 -4 18 9 13 9 -3 19 -1 23
5 4 7 3 8 -4 4 -7 -4 -12 -1 -12 9 0 9 4 14 9 10 6 -3 14 3 20 12 6 10 11 14
11 10 0 -4 11 3 24 17 13 15 28 26 34 26 5 0 12 6 15 14 3 8 17 22 32 32 21
14 28 14 43 3 15 -12 16 -12 5 1 -8 10 -9 21 -3 30 6 8 10 11 10 6 0 -6 7 -1
15 10 13 17 16 17 26 4 9 -13 10 -12 5 3 -3 11 2 24 15 35 12 9 28 23 36 31 7
7 17 10 21 6 9 -8 9 -39 0 -45 -4 -3 -9 -18 -12 -34 -3 -15 -13 -35 -23 -43
-10 -8 -12 -11 -5 -8 10 5 10 -1 -2 -28 -8 -20 -11 -39 -8 -43 4 -4 1 -3 -7 1
-10 6 -13 4 -9 -6 3 -8 1 -25 -4 -38 -8 -23 -9 -24 -31 -5 l-22 19 22 -26 c20
-22 21 -27 8 -46 -8 -11 -12 -23 -9 -26 9 -8 -16 -48 -26 -42 -5 3 -12 1 -15
-5 -4 -6 -3 -10 2 -9 22 4 25 -3 7 -17 -10 -8 -12 -12 -4 -8 13 7 13 5 1 -9
-7 -9 -10 -17 -7 -17 4 0 1 -10 -6 -22 -6 -13 -13 -32 -15 -43 -2 -10 -9 -23
-16 -27 -6 -4 -8 -8 -3 -8 4 0 1 -12 -9 -26 -9 -15 -12 -23 -5 -19 16 10 -8
-37 -24 -47 -8 -5 -7 -8 1 -8 10 0 10 -6 1 -25 -6 -13 -15 -22 -19 -19 -5 3
-6 -2 -3 -10 3 -8 0 -25 -7 -38 -7 -13 -12 -26 -11 -31 1 -4 -3 -7 -9 -7 -5 0
-7 -4 -4 -10 3 -5 3 -16 -2 -22 -4 -7 -9 -24 -11 -38 -2 -13 -7 -27 -11 -30
-4 -3 -8 -27 -8 -55 -1 -55 19 -80 67 -80 14 0 31 -4 37 -8 9 -5 11 -3 7 7 -3
9 6 21 25 32 17 10 31 23 31 28 0 5 3 6 6 3 4 -3 15 5 26 18 11 14 24 25 30
25 6 0 5 -7 -3 -17 -11 -15 -10 -14 9 1 23 20 30 32 12 21 -6 -3 -10 -3 -10 0
0 10 28 35 39 35 6 0 11 5 11 10 0 6 8 10 17 10 9 0 14 3 10 6 -6 6 45 54 58
54 5 0 0 -10 -11 -22 l-19 -23 22 18 c12 11 19 25 16 33 -3 8 -1 14 4 14 4 0
22 12 38 28 16 15 33 26 37 25 5 -2 8 4 8 13 0 8 4 13 9 10 5 -3 12 1 15 10 3
9 13 14 21 10 8 -3 17 0 21 6 5 7 2 8 -6 3 -8 -5 -11 -3 -8 6 3 8 12 13 21 11
8 -1 19 3 23 9 4 8 3 9 -4 5 -7 -4 -12 -3 -12 3 0 6 11 13 25 17 14 3 22 10
19 15 -3 5 -1 9 4 9 5 0 23 14 40 30 18 17 37 30 44 30 8 0 9 -3 3 -8 -6 -4
-10 -17 -9 -30 1 -12 -3 -22 -9 -22 -5 0 -3 -8 4 -17 8 -9 9 -14 3 -10 -7 4
-15 0 -18 -9 -3 -8 -2 -12 4 -9 6 3 10 2 10 -4 0 -5 -4 -12 -9 -16 -6 -3 -8
-15 -6 -27 3 -12 -1 -26 -8 -31 -9 -7 -9 -10 0 -14 9 -3 10 -10 4 -21 -4 -9
-8 -29 -7 -44 1 -16 -2 -28 -7 -28 -4 0 -6 -4 -2 -9 3 -5 1 -12 -4 -15 -6 -4
-4 -17 4 -33 8 -15 12 -30 9 -35 -3 -4 -1 -8 3 -8 5 0 25 -15 44 -32 20 -18
42 -34 50 -36 8 -2 16 -8 17 -13 2 -5 7 -7 12 -4 5 3 16 -2 24 -11 9 -8 16
-12 16 -8 0 4 7 -1 16 -12 8 -10 13 -13 9 -6 -8 16 1 15 30 -4 14 -9 23 -19
20 -23 -2 -4 2 -8 10 -8 8 0 12 4 9 9 -10 15 14 8 32 -10 10 -9 19 -16 21 -14
9 6 33 1 29 -7 -3 -5 4 -9 17 -9 28 0 97 -24 97 -34 0 -4 6 -5 13 -3 19 8 72
-11 69 -24 -2 -8 3 -9 16 -2 10 5 24 6 32 1 8 -5 18 -6 23 -3 6 3 18 -5 29
-18 11 -15 16 -18 12 -7 -3 10 -1 18 5 18 14 0 32 -35 23 -45 -4 -5 -2 -5 5
-1 7 4 10 13 7 21 -5 11 1 14 20 13 14 -1 26 -6 26 -11 0 -5 7 -6 16 -3 12 5
15 2 10 -11 -5 -15 -4 -15 9 1 13 18 20 15 16 -7 -1 -4 8 -2 18 5 15 9 23 9
34 -1 11 -8 17 -9 22 -1 5 8 11 6 19 -6 10 -12 15 -14 20 -5 6 9 11 9 22 0 11
-9 14 -9 14 1 0 8 4 9 13 3 6 -6 24 -9 40 -8 15 1 27 -2 27 -8 0 -5 7 -4 16 4
10 8 18 9 22 3 4 -6 26 -10 49 -9 25 0 39 -3 36 -10 -3 -5 0 -5 7 2 11 10 16
9 27 -5 11 -14 12 -14 8 -1 -5 13 2 16 42 14 26 -1 60 2 76 6 28 8 35 1 17
-17 -7 -7 -6 -11 4 -11 8 0 13 4 11 8 -3 3 3 13 12 20 14 12 16 12 8 -1 -8
-13 -7 -13 8 -1 16 12 22 8 18 -12 -1 -5 3 -6 9 -2 6 3 8 11 5 16 -9 13 9 11
24 -3 10 -11 11 -9 5 7 -7 17 -6 18 8 7 11 -9 18 -10 23 -2 3 6 11 8 16 5 5
-4 15 -3 22 2 12 8 28 10 97 15 19 2 41 9 49 16 12 11 15 11 22 0 7 -11 9 -11
9 0 0 7 4 11 9 7 5 -3 13 -1 16 5 5 8 12 7 23 -2 13 -11 14 -11 7 1 -6 11 -3
13 13 9 12 -4 20 -2 16 3 -5 8 18 13 54 12 6 -1 12 4 12 9 0 6 6 8 14 5 7 -3
19 0 25 6 6 6 11 8 11 3 0 -4 7 0 16 9 10 9 20 13 23 8 9 -12 34 -15 26 -3 -6
10 7 14 33 11 7 -1 15 5 18 13 3 8 12 12 20 9 8 -3 14 0 14 7 0 6 4 9 9 5 5
-3 12 -1 15 3 3 5 18 8 35 7 23 -1 28 2 23 14 -5 14 -4 14 11 2 10 -8 20 -11
24 -7 3 3 1 6 -6 6 -7 0 -9 5 -6 10 5 8 11 7 21 -1 12 -10 13 -9 7 7 -6 17 -5
17 10 5 15 -12 17 -12 11 4 -5 12 -4 16 4 11 6 -3 13 -2 17 4 4 6 11 8 16 5 5
-4 9 -2 9 2 0 11 84 53 105 53 8 0 15 3 15 8 0 4 9 13 21 20 17 11 20 11 14 0
-4 -8 -1 -7 7 2 21 24 58 41 70 34 7 -4 8 -3 4 4 -8 14 30 36 46 26 6 -4 8 -3
4 4 -4 6 14 25 41 43 27 18 51 37 55 43 4 6 8 7 8 2 0 -5 10 3 23 17 12 15 28
27 35 27 7 0 12 5 12 11 0 6 9 8 23 4 15 -4 18 -3 9 3 -14 9 -1 23 59 62 12 8
33 26 45 38 13 13 28 21 33 17 7 -4 8 0 4 11 -5 14 -3 16 11 11 9 -4 15 -3 12
2 -6 9 58 71 74 71 5 0 10 7 10 16 0 9 9 18 20 21 11 3 20 12 20 20 0 8 5 11
10 8 6 -3 10 -1 10 5 0 15 25 40 40 40 6 0 9 4 5 9 -7 12 29 33 41 23 5 -4 3
0 -3 8 -10 13 -8 18 8 28 11 7 25 9 32 5 7 -4 7 0 -2 10 -7 9 -9 17 -4 17 6 0
21 15 34 34 14 21 28 32 38 28 9 -3 12 -1 7 6 -7 11 37 65 46 56 3 -2 5 2 5 8
0 21 94 149 104 143 5 -4 6 0 3 8 -3 8 -1 18 5 22 6 3 11 1 11 -6 0 -7 3 -9 6
-6 4 4 1 14 -7 24 -8 9 -9 14 -3 10 7 -4 17 5 24 23 7 17 16 30 21 30 5 0 8 6
6 13 -1 6 4 11 10 10 7 -2 12 0 12 5 -4 21 3 41 21 62 11 12 17 27 13 33 -3 6
-1 7 5 3 8 -4 12 0 12 11 0 10 7 27 15 37 8 10 12 24 8 29 -4 6 0 8 11 4 9 -4
15 -3 12 2 -10 15 15 72 27 64 7 -4 6 1 -2 10 -11 13 -11 17 -1 17 8 0 10 3 7
7 -4 3 -2 12 3 19 11 13 21 47 23 77 1 9 5 17 9 17 4 0 7 3 7 8 -3 19 2 33 10
27 5 -3 13 -1 16 5 4 6 3 9 -2 8 -4 -2 -10 1 -12 5 -5 11 40 147 48 147 4 0
13 -6 21 -12 12 -11 12 -10 1 5 -16 20 -11 26 72 109 26 27 45 48 42 48 -3 0
3 8 13 18 9 11 20 17 23 16 4 -2 9 5 12 15 7 28 65 54 120 55 34 1 47 -3 47
-13 0 -11 3 -11 16 -1 8 8 14 9 12 4 -2 -5 2 -11 7 -12 6 -2 16 -8 23 -14 6
-6 12 -7 12 -4 0 4 14 -2 30 -14 17 -12 28 -26 25 -31 -4 -5 2 -6 11 -2 13 5
16 3 11 -10 -4 -11 -2 -14 9 -10 17 6 46 -15 38 -28 -3 -5 2 -9 11 -9 17 0 47
-24 45 -35 -1 -4 1 -10 5 -13 4 -4 5 0 3 8 -3 16 51 25 152 25 43 0 54 -3 52
-15 -3 -12 0 -11 15 2 11 10 24 14 31 9 7 -4 27 -7 44 -6 43 2 50 38 10 53
-15 6 -36 14 -47 18 -11 4 -24 8 -30 9 -5 0 -16 4 -22 8 -7 5 -17 5 -23 2 -5
-3 -10 -2 -10 3 0 6 7 13 16 16 22 8 26 8 19 -3 -3 -5 -1 -13 5 -16 6 -4 10
-3 9 2 -4 22 2 32 16 27 8 -4 12 -11 9 -18 -3 -6 2 -2 10 8 12 15 16 16 16 5
0 -11 2 -11 8 -2 8 12 46 22 100 26 12 1 22 5 22 8 0 4 8 9 18 11 26 7 24 36
-2 33 -12 0 -25 2 -31 6 -11 8 -16 9 -41 9 -8 0 -13 4 -10 8 3 5 -1 9 -9 9 -8
0 -12 -4 -9 -9 3 -4 0 -8 -5 -8 -6 0 -11 6 -11 13 0 8 -4 7 -10 -3 -5 -8 -10
-10 -10 -4 0 7 -7 15 -16 18 -10 4 -13 2 -8 -6 5 -7 2 -9 -9 -5 -9 3 -17 1
-19 -5 -2 -5 -10 -2 -18 8 -8 10 -10 15 -3 11 6 -4 13 -3 15 2 1 6 16 12 32
15 16 3 32 9 35 14 3 5 16 8 28 7 12 -1 20 2 18 6 -3 4 6 10 19 13 29 7 58 34
51 46 -3 5 -24 6 -48 4 -23 -3 -68 -6 -99 -7 -32 -1 -58 -5 -58 -8 0 -3 -6 -6
-12 -6 -33 -2 -101 -14 -110 -19 -13 -8 8 33 38 73 28 37 30 50 9 50 -8 0 -15
-4 -15 -9 0 -4 -6 -8 -14 -8 -8 0 -22 -7 -31 -16 -13 -14 -18 -14 -33 -2 -15
12 -16 11 -4 -4 11 -13 11 -18 0 -24 -25 -16 -48 -14 -48 4 0 15 -2 15 -10 2
-9 -13 -12 -12 -25 4 -8 11 -15 17 -15 13 0 -6 -98 41 -110 53 -3 3 -16 7 -30
9 -13 1 -31 12 -38 22 -7 10 -18 19 -24 19 -7 0 -3 -6 7 -14 16 -12 12 -13
-37 -12 -32 1 -64 9 -75 17 -16 13 -17 13 -4 -3 9 -12 10 -18 2 -18 -18 0 -26
4 -23 13 1 5 -2 6 -8 2 -6 -3 -8 -11 -5 -16 10 -16 -22 -21 -47 -8 -21 11 -22
11 -10 -4 11 -13 10 -17 -6 -26 -11 -6 -22 -7 -26 -4 -3 3 -6 1 -6 -5 0 -10
-38 -28 -52 -24 -4 1 -4 -6 -1 -15 4 -11 3 -14 -5 -9 -13 8 -11 64 2 85 4 6
12 8 18 5 7 -4 8 -2 4 4 -4 6 -13 9 -20 6 -11 -4 -14 5 -12 38 1 24 5 49 9 56
5 7 3 12 -5 12 -9 0 -9 3 2 10 10 6 11 10 3 10 -7 0 -13 5 -13 11 0 5 5 7 12
3 7 -5 8 -3 2 7 -13 22 -14 43 -1 51 9 6 8 8 -2 8 -7 0 -11 6 -8 14 3 8 3 17
0 20 -10 10 -12 57 -2 51 5 -4 9 -2 9 4 0 5 -5 11 -12 13 -6 2 -12 13 -13 24
-2 10 -5 31 -8 47 -4 17 -1 27 6 27 7 0 4 5 -6 11 -9 6 -15 14 -12 19 3 5 0
12 -6 16 -8 4 -7 9 2 15 10 6 10 9 2 9 -7 0 -10 7 -7 15 4 8 1 15 -6 15 -6 0
-9 4 -5 9 3 5 1 12 -4 16 -6 3 -8 12 -4 20 3 8 0 15 -6 15 -6 0 -11 9 -11 20
0 11 -4 28 -9 38 -22 42 -71 154 -71 162 0 6 -5 10 -11 10 -6 0 -9 6 -6 14 3
8 -1 17 -9 20 -8 3 -14 12 -14 21 0 8 -4 15 -9 15 -6 0 -8 9 -6 20 2 11 0 18
-4 15 -10 -5 -64 73 -64 92 0 7 -7 13 -16 13 -14 0 -14 2 -1 10 12 8 10 10
-10 10 -20 0 -22 2 -10 10 13 9 13 10 0 10 -17 1 -70 73 -70 96 0 8 4 13 9 9
5 -3 21 6 35 20 15 14 30 24 35 20 5 -3 13 0 17 6 4 8 3 9 -4 5 -17 -10 -15 9
3 24 8 6 20 8 26 4 7 -4 9 -3 6 3 -8 12 37 56 47 46 4 -4 4 0 1 9 -4 11 0 18
14 23 12 3 19 10 16 14 -2 5 7 19 20 31 14 13 25 29 25 36 0 7 6 17 13 21 6 4
13 15 14 23 1 8 5 29 9 45 3 17 6 37 7 45 0 8 5 21 11 29 9 12 8 13 -4 6 -13
-8 -13 -7 -1 8 8 11 9 17 3 17 -6 0 -9 7 -6 15 4 8 10 13 14 10 5 -3 12 0 16
6 4 7 3 9 -2 6 -6 -3 -16 -2 -24 3 -13 8 -12 12 5 25 11 8 14 14 6 13 -7 -2
-15 7 -17 20 -3 15 0 21 7 16 8 -4 8 -1 1 13 -13 24 -18 105 -8 121 5 8 2 10
-8 6 -10 -4 -15 0 -14 13 0 10 -3 26 -7 36 -4 10 -3 17 5 17 6 0 8 5 5 10 -3
6 -1 10 4 10 6 0 10 3 10 8 -4 23 2 42 12 37 6 -4 10 -1 8 6 -4 31 1 41 17 35
14 -6 15 -4 4 10 -12 13 -11 17 1 25 8 5 10 9 5 9 -5 0 -4 6 2 13 5 6 12 23
14 37 1 14 7 28 12 32 5 3 -9 5 -31 5 -32 -2 -39 -5 -31 -14 7 -9 7 -13 0 -13
-6 0 -25 -15 -43 -32 -18 -18 -29 -27 -24 -19 5 10 4 12 -3 7 -7 -4 -12 -14
-12 -22 0 -8 -5 -12 -10 -9 -6 4 -8 11 -5 16 4 5 2 9 -3 9 -5 0 -9 6 -9 13 -2
32 -11 75 -22 100 -6 16 -9 32 -6 37 4 6 -16 20 -30 20 -6 0 -25 -56 -30 -90
-11 -68 -26 -111 -36 -104 -6 3 -8 12 -5 20 3 8 2 13 -2 13 -20 -3 -32 3 -32
16 0 8 -4 15 -8 15 -5 0 -18 9 -29 20 -16 14 -24 16 -31 7 -10 -13 -12 -47 -2
-47 3 0 6 -10 7 -22 2 -33 10 -65 26 -98 17 -33 10 -48 -10 -22 -12 16 -13 16
-7 0 4 -12 1 -18 -10 -19 -17 -2 -33 -5 -41 -9 -3 -1 -8 -4 -12 -5 -5 -1 -23
-8 -42 -15 l-34 -13 38 -18 c21 -11 45 -19 52 -19 7 0 13 -5 13 -11 0 -5 4 -8
8 -5 5 3 19 -1 33 -8 13 -7 26 -12 29 -12 17 0 40 -23 44 -44 2 -14 5 -25 6
-25 1 0 2 -17 4 -37 2 -22 -2 -38 -8 -38 -7 0 -7 -3 0 -10 14 -14 5 -72 -10
-63 -6 4 -5 0 2 -9 9 -11 10 -18 2 -23 -6 -3 -8 -10 -5 -15 3 -5 1 -11 -5 -15
-6 -4 -8 -10 -5 -15 3 -4 -2 -11 -11 -14 -9 -3 -12 -11 -8 -18 5 -8 2 -9 -9
-5 -11 4 -14 2 -10 -9 3 -7 0 -14 -7 -14 -6 0 -8 -4 -5 -10 6 -9 -8 -14 -28
-11 -5 1 -6 -2 -3 -7 10 -16 -49 -63 -70 -56 -13 4 -15 3 -6 -3 10 -8 10 -12
-3 -23 -8 -7 -15 -9 -15 -4 0 5 -5 2 -10 -6 -8 -13 -11 -11 -16 8 -4 12 -11
22 -16 22 -6 0 -8 9 -5 21 4 16 3 18 -8 9 -11 -9 -16 -6 -26 12 -7 13 -12 26
-11 31 1 4 -4 6 -10 5 -7 -2 -12 3 -10 10 1 6 -1 11 -5 11 -18 -3 -36 1 -30 7
3 3 -10 21 -29 40 -21 20 -32 39 -28 45 4 7 3 9 -4 5 -12 -7 -82 58 -82 76 0
6 -2 9 -6 6 -7 -7 -100 82 -97 93 2 5 0 8 -5 8 -21 -4 -42 2 -37 10 3 5 -4 13
-16 16 -12 4 -18 12 -15 20 3 9 0 12 -9 8 -8 -3 -18 2 -21 11 -3 9 -11 16 -18
16 -6 0 -18 9 -26 20 -8 11 -20 20 -28 20 -7 0 -10 5 -7 10 3 6 -1 10 -10 10
-12 0 -15 5 -11 17 4 10 4 14 0 11 -10 -11 -45 12 -38 24 4 6 3 8 -3 5 -12 -8
-96 71 -88 83 3 5 -1 7 -9 4 -9 -3 -20 3 -28 15 -7 12 -17 21 -23 21 -5 0 -23
11 -39 25 -16 13 -37 27 -47 30 -11 4 -19 11 -19 16 0 5 -7 9 -15 9 -8 0 -24
9 -35 20 -12 12 -20 15 -20 8 0 -10 -2 -10 -9 0 -4 8 -12 14 -17 14 -26 1 -55
19 -48 30 6 10 4 10 -8 0 -11 -9 -18 -10 -23 -2 -3 5 -15 10 -25 10 -10 0 -25
6 -32 13 -7 7 -20 12 -28 12 -8 -1 -23 3 -33 8 -10 5 -31 11 -45 13 -15 3 -34
7 -42 11 -8 3 -31 7 -50 7 -19 1 -39 4 -45 8 -5 3 -23 4 -38 2 -25 -2 -27 -1
-15 14 12 16 11 16 -6 2 -21 -16 -86 -20 -86 -5 0 7 -3 7 -8 0 -4 -5 -30 -10
-59 -11 -40 0 -50 3 -42 12 7 8 6 15 -2 20 -7 4 -9 3 -6 -3z m-1673 -3567 c0
-3 -4 -8 -10 -11 -5 -3 -10 -1 -10 4 0 6 5 11 10 11 6 0 10 -2 10 -4z"/>
<path d="M3655 5669 c-4 -6 -5 -12 -2 -15 2 -3 7 2 10 11 7 17 1 20 -8 4z"/>
<path d="M3275 5660 c3 -5 8 -10 11 -10 2 0 4 5 4 10 0 6 -5 10 -11 10 -5 0
-7 -4 -4 -10z"/>
<path d="M3570 5660 c0 -5 5 -10 11 -10 5 0 7 5 4 10 -3 6 -8 10 -11 10 -2 0
-4 -4 -4 -10z"/>
<path d="M2853 5615 c0 -8 4 -12 9 -9 5 3 6 10 3 15 -9 13 -12 11 -12 -6z"/>
<path d="M2790 5606 c0 -2 7 -7 16 -10 8 -3 12 -2 9 4 -6 10 -25 14 -25 6z"/>
<path d="M3756 5593 c-6 -14 -5 -15 5 -6 7 7 10 15 7 18 -3 3 -9 -2 -12 -12z"/>
<path d="M3826 5602 c-3 -5 1 -9 9 -9 8 0 12 4 9 9 -3 4 -7 8 -9 8 -2 0 -6 -4
-9 -8z"/>
<path d="M3995 5480 c3 -5 8 -10 11 -10 2 0 4 5 4 10 0 6 -5 10 -11 10 -5 0
-7 -4 -4 -10z"/>
<path d="M4050 5461 c0 -6 4 -13 10 -16 6 -3 7 1 4 9 -7 18 -14 21 -14 7z"/>
<path d="M5235 5449 c-4 -6 -5 -12 -2 -15 2 -3 7 2 10 11 7 17 1 20 -8 4z"/>
<path d="M4156 5367 c3 -10 9 -15 12 -12 3 3 0 11 -7 18 -10 9 -11 8 -5 -6z"/>
<path d="M4180 5325 c0 -2 6 -8 13 -14 10 -8 14 -7 14 2 0 8 -6 14 -14 14 -7
0 -13 -1 -13 -2z"/>
<path d="M4295 5261 c-3 -5 -2 -12 3 -15 5 -3 9 1 9 9 0 17 -3 19 -12 6z"/>
<path d="M5299 5263 c0 -5 -2 -16 -4 -26 -2 -11 -1 -16 3 -13 8 8 14 46 7 46
-3 0 -5 -3 -6 -7z"/>
<path d="M2790 5158 c0 -4 4 -8 9 -8 6 0 12 4 15 8 3 5 -1 9 -9 9 -8 0 -15 -4
-15 -9z"/>
<path d="M2830 5156 c0 -2 8 -10 18 -17 15 -13 16 -12 3 4 -13 16 -21 21 -21
13z"/>
<path d="M5336 5142 c-3 -5 1 -9 9 -9 8 0 12 4 9 9 -3 4 -7 8 -9 8 -2 0 -6 -4
-9 -8z"/>
<path d="M5013 5113 c0 -9 4 -10 14 -2 7 6 13 12 13 14 0 1 -6 2 -13 2 -8 0
-14 -6 -14 -14z"/>
<path d="M2857 5095 c-4 -8 -3 -16 1 -19 4 -3 9 4 9 15 2 23 -3 25 -10 4z"/>
<path d="M5300 5086 c0 -2 8 -10 18 -17 15 -13 16 -12 3 4 -13 16 -21 21 -21
13z"/>
<path d="M5034 5056 c4 -10 1 -26 -6 -35 -11 -14 -10 -14 6 0 15 14 16 20 6
35 -11 18 -11 18 -6 0z"/>
<path d="M4594 4976 c1 -8 5 -18 8 -22 4 -3 5 1 4 10 -1 8 -5 18 -8 22 -4 3
-5 -1 -4 -10z"/>
<path d="M3036 4967 c3 -10 9 -15 12 -12 3 3 0 11 -7 18 -10 9 -11 8 -5 -6z"/>
<path d="M5355 4969 c-4 -6 -5 -12 -2 -15 2 -3 7 2 10 11 7 17 1 20 -8 4z"/>
<path d="M3075 4960 c3 -5 8 -10 11 -10 2 0 4 5 4 10 0 6 -5 10 -11 10 -5 0
-7 -4 -4 -10z"/>
<path d="M3100 4966 c0 -2 8 -10 18 -17 15 -13 16 -12 3 4 -13 16 -21 21 -21
13z"/>
<path d="M5025 4960 c-3 -6 1 -7 9 -4 18 7 21 14 7 14 -6 0 -13 -4 -16 -10z"/>
<path d="M4990 4883 c0 -6 8 -17 18 -24 16 -13 16 -13 2 6 -8 11 -16 22 -17
24 -2 2 -3 0 -3 -6z"/>
<path d="M4770 4819 c0 -5 5 -7 10 -4 6 3 10 8 10 11 0 2 -4 4 -10 4 -5 0 -10
-5 -10 -11z"/>
<path d="M4956 4818 c3 -5 10 -6 15 -3 13 9 11 12 -6 12 -8 0 -12 -4 -9 -9z"/>
<path d="M4947 4799 c7 -7 15 -10 18 -7 3 3 -2 9 -12 12 -14 6 -15 5 -6 -5z"/>
<path d="M5295 4789 c-4 -6 -5 -12 -2 -15 2 -3 7 2 10 11 7 17 1 20 -8 4z"/>
<path d="M4787 4779 c7 -7 15 -10 18 -7 3 3 -2 9 -12 12 -14 6 -15 5 -6 -5z"/>
<path d="M4918 4773 c7 -3 16 -2 19 1 4 3 -2 6 -13 5 -11 0 -14 -3 -6 -6z"/>
<path d="M3500 4766 c0 -2 8 -10 18 -17 15 -13 16 -12 3 4 -13 16 -21 21 -21
13z"/>
<path d="M4837 4751 c-10 -14 -10 -14 4 -4 9 7 18 10 21 7 3 -3 8 -1 12 4 9
16 -24 9 -37 -7z"/>
<path d="M3639 4758 c-5 -19 -8 -50 -4 -46 7 7 15 48 9 48 -2 0 -4 -1 -5 -2z"/>
<path d="M3575 4740 c3 -5 8 -10 11 -10 2 0 4 5 4 10 0 6 -5 10 -11 10 -5 0
-7 -4 -4 -10z"/>
<path d="M3670 4740 c0 -5 5 -10 11 -10 5 0 7 5 4 10 -3 6 -8 10 -11 10 -2 0
-4 -4 -4 -10z"/>
<path d="M3707 4719 c7 -7 15 -10 18 -7 3 3 -2 9 -12 12 -14 6 -15 5 -6 -5z"/>
<path d="M3836 4653 c-4 -9 -3 -20 1 -24 4 -4 9 3 9 17 2 28 -1 31 -10 7z"/>
<path d="M3795 4641 c-3 -5 -2 -12 3 -15 5 -3 9 1 9 9 0 17 -3 19 -12 6z"/>
<path d="M5195 4631 c-3 -5 -2 -12 3 -15 5 -3 9 1 9 9 0 17 -3 19 -12 6z"/>
<path d="M5167 4599 c7 -7 15 -10 18 -7 3 3 -2 9 -12 12 -14 6 -15 5 -6 -5z"/>
<path d="M3976 4513 c-6 -14 -5 -15 5 -6 7 7 10 15 7 18 -3 3 -9 -2 -12 -12z"/>
<path d="M5035 4469 c-4 -6 -5 -12 -2 -15 2 -3 7 2 10 11 7 17 1 20 -8 4z"/>
<path d="M5068 4454 c7 -14 8 -24 1 -31 -6 -6 -5 -10 5 -10 16 0 13 34 -5 51
-9 8 -9 6 -1 -10z"/>
<path d="M5045 4439 c-4 -6 -5 -12 -2 -15 2 -3 7 2 10 11 7 17 1 20 -8 4z"/>
<path d="M3460 4400 c8 -5 20 -10 25 -10 6 0 3 5 -5 10 -8 5 -19 10 -25 10 -5
0 -3 -5 5 -10z"/>
<path d="M3295 4341 c-3 -5 -2 -12 3 -15 5 -3 9 1 9 9 0 17 -3 19 -12 6z"/>
<path d="M449 4323 c-13 -16 -12 -17 4 -4 9 7 17 15 17 17 0 8 -8 3 -21 -13z"/>
<path d="M4090 4326 c0 -2 7 -7 16 -10 8 -3 12 -2 9 4 -6 10 -25 14 -25 6z"/>
<path d="M3270 4316 c0 -2 8 -10 18 -17 15 -13 16 -12 3 4 -13 16 -21 21 -21
13z"/>
<path d="M3310 4300 c0 -5 5 -10 10 -10 6 0 10 5 10 10 0 6 -4 10 -10 10 -5 0
-10 -4 -10 -10z"/>
<path d="M4193 4271 c0 -11 5 -18 9 -15 4 3 5 11 1 19 -7 21 -12 19 -10 -4z"/>
<path d="M4160 4235 c-7 -8 -9 -15 -5 -15 4 0 1 -8 -6 -17 -13 -16 -12 -17 4
-4 9 8 15 16 12 19 -3 3 0 11 6 19 6 7 9 13 6 13 -2 0 -10 -7 -17 -15z"/>
<path d="M4120 4220 c-9 -6 -10 -10 -3 -10 6 0 15 5 18 10 8 12 4 12 -15 0z"/>
<path d="M5230 4201 c0 -6 4 -13 10 -16 6 -3 7 1 4 9 -7 18 -14 21 -14 7z"/>
<path d="M3987 4179 c7 -7 15 -10 18 -7 3 3 -2 9 -12 12 -14 6 -15 5 -6 -5z"/>
<path d="M3216 4158 c3 -4 11 -5 19 -1 21 7 19 12 -4 10 -11 0 -18 -5 -15 -9z"/>
<path d="M3620 4160 c0 -5 5 -10 11 -10 5 0 7 5 4 10 -3 6 -8 10 -11 10 -2 0
-4 -4 -4 -10z"/>
<path d="M4065 4160 c-3 -6 1 -7 9 -4 18 7 21 14 7 14 -6 0 -13 -4 -16 -10z"/>
<path d="M4013 4135 c0 -8 4 -12 9 -9 5 3 6 10 3 15 -9 13 -12 11 -12 -6z"/>
<path d="M3955 4101 c-3 -5 -2 -12 3 -15 5 -3 9 1 9 9 0 17 -3 19 -12 6z"/>
<path d="M5290 4040 c0 -5 5 -10 11 -10 5 0 7 5 4 10 -3 6 -8 10 -11 10 -2 0
-4 -4 -4 -10z"/>
<path d="M3347 4019 c7 -7 15 -10 18 -7 3 3 -2 9 -12 12 -14 6 -15 5 -6 -5z"/>
<path d="M3388 4013 c6 -2 9 -10 5 -16 -3 -7 -3 -9 2 -5 4 4 15 2 24 -4 10 -8
9 -4 -3 10 -11 12 -24 22 -30 21 -6 0 -6 -3 2 -6z"/>
<path d="M3355 3989 c-4 -6 -5 -12 -2 -15 2 -3 7 2 10 11 7 17 1 20 -8 4z"/>
<path d="M5310 3976 c7 -7 13 -7 20 0 6 6 3 10 -10 10 -13 0 -16 -4 -10 -10z"/>
<path d="M186 3962 c-3 -5 1 -9 9 -9 8 0 12 4 9 9 -3 4 -7 8 -9 8 -2 0 -6 -4
-9 -8z"/>
<path d="M4295 3950 c-3 -6 1 -7 9 -4 18 7 21 14 7 14 -6 0 -13 -4 -16 -10z"/>
<path d="M4275 3934 c2 -4 0 -14 -5 -23 -6 -13 -4 -17 10 -17 15 0 17 3 7 15
-7 8 -10 16 -9 18 2 3 1 7 -2 9 -3 2 -4 1 -1 -2z"/>
<path d="M4240 3920 c-9 -6 -10 -10 -3 -10 6 0 15 5 18 10 8 12 4 12 -15 0z"/>
<path d="M3495 3899 c-3 -4 2 -6 10 -5 21 3 28 13 10 13 -9 0 -18 -4 -20 -8z"/>
<path d="M4321 3896 c-9 -10 -8 -15 2 -19 8 -3 13 3 13 14 0 23 0 23 -15 5z"/>
<path d="M3575 3860 c-3 -5 -1 -10 4 -10 6 0 11 5 11 10 0 6 -2 10 -4 10 -3 0
-8 -4 -11 -10z"/>
<path d="M4215 3860 c3 -5 8 -10 11 -10 2 0 4 5 4 10 0 6 -5 10 -11 10 -5 0
-7 -4 -4 -10z"/>
<path d="M4307 3859 c7 -7 15 -10 18 -7 3 3 -2 9 -12 12 -14 6 -15 5 -6 -5z"/>
<path d="M4273 3835 c0 -8 4 -12 9 -9 5 3 6 10 3 15 -9 13 -12 11 -12 -6z"/>
<path d="M4095 3820 c-3 -5 -1 -10 4 -10 6 0 11 5 11 10 0 6 -2 10 -4 10 -3 0
-8 -4 -11 -10z"/>
<path d="M5370 3819 c0 -5 5 -7 10 -4 6 3 10 8 10 11 0 2 -4 4 -10 4 -5 0 -10
-5 -10 -11z"/>
<path d="M4320 3800 c-9 -6 -10 -10 -3 -10 6 0 15 5 18 10 8 12 4 12 -15 0z"/>
<path d="M3975 3780 c-3 -5 -1 -10 4 -10 6 0 11 5 11 10 0 6 -2 10 -4 10 -3 0
-8 -4 -11 -10z"/>
<path d="M5366 3782 c-3 -5 1 -9 9 -9 8 0 12 4 9 9 -3 4 -7 8 -9 8 -2 0 -6 -4
-9 -8z"/>
<path d="M4035 3769 c-4 -6 -5 -12 -2 -15 2 -3 7 2 10 11 7 17 1 20 -8 4z"/>
<path d="M3795 3760 c-3 -5 -1 -10 4 -10 6 0 11 5 11 10 0 6 -2 10 -4 10 -3 0
-8 -4 -11 -10z"/>
<path d="M4296 3762 c-2 -4 -1 -14 4 -22 7 -11 9 -9 7 8 -1 24 -3 26 -11 14z"/>
<path d="M4315 3711 c-3 -5 -2 -12 3 -15 5 -3 9 1 9 9 0 17 -3 19 -12 6z"/>
<path d="M5390 3699 c0 -5 5 -7 10 -4 6 3 10 8 10 11 0 2 -4 4 -10 4 -5 0 -10
-5 -10 -11z"/>
<path d="M313 3565 c0 -8 4 -12 9 -9 5 3 6 10 3 15 -9 13 -12 11 -12 -6z"/>
<path d="M4335 3540 c3 -5 8 -10 11 -10 2 0 4 5 4 10 0 6 -5 10 -11 10 -5 0
-7 -4 -4 -10z"/>
<path d="M5427 3419 c7 -7 15 -10 18 -7 3 3 -2 9 -12 12 -14 6 -15 5 -6 -5z"/>
<path d="M4353 3405 c0 -8 4 -15 9 -15 4 0 8 4 8 9 0 6 -4 12 -8 15 -5 3 -9
-1 -9 -9z"/>
<path d="M5442 3378 c-17 -17 -15 -25 11 -31 20 -5 20 -5 5 7 -13 10 -15 15
-6 24 7 7 10 12 7 12 -3 0 -10 -5 -17 -12z"/>
<path d="M5627 3379 c7 -7 15 -10 18 -7 3 3 -2 9 -12 12 -14 6 -15 5 -6 -5z"/>
<path d="M5470 3376 c0 -2 8 -10 18 -17 15 -13 16 -12 3 4 -13 16 -21 21 -21
13z"/>
<path d="M5773 3355 c0 -8 4 -12 9 -9 5 3 6 10 3 15 -9 13 -12 11 -12 -6z"/>
<path d="M5406 3298 c3 -5 10 -6 15 -3 13 9 11 12 -6 12 -8 0 -12 -4 -9 -9z"/>
<path d="M5436 3293 c-6 -14 -5 -15 5 -6 7 7 10 15 7 18 -3 3 -9 -2 -12 -12z"/>
<path d="M5949 3283 c-13 -16 -12 -17 4 -4 16 13 21 21 13 21 -2 0 -10 -8 -17
-17z"/>
<path d="M6133 3225 c0 -8 4 -12 9 -9 5 3 6 10 3 15 -9 13 -12 11 -12 -6z"/>
<path d="M335 3200 c-3 -5 -1 -10 4 -10 6 0 11 5 11 10 0 6 -2 10 -4 10 -3 0
-8 -4 -11 -10z"/>
<path d="M4360 3120 c-9 -6 -10 -10 -3 -10 6 0 15 5 18 10 8 12 4 12 -15 0z"/>
<path d="M4336 3062 c-3 -5 1 -9 9 -9 8 0 12 4 9 9 -3 4 -7 8 -9 8 -2 0 -6 -4
-9 -8z"/>
<path d="M4395 3061 c-3 -5 -2 -12 3 -15 5 -3 9 1 9 9 0 17 -3 19 -12 6z"/>
<path d="M4433 3029 c-2 -23 3 -25 10 -4 4 8 3 16 -1 19 -4 3 -9 -4 -9 -15z"/>
<path d="M5633 3030 c-11 -16 -10 -18 2 -14 8 4 15 12 15 20 0 19 -3 18 -17
-6z"/>
<path d="M4149 3023 c-13 -16 -12 -17 4 -4 16 13 21 21 13 21 -2 0 -10 -8 -17
-17z"/>
<path d="M5666 3023 c-6 -14 -5 -15 5 -6 7 7 10 15 7 18 -3 3 -9 -2 -12 -12z"/>
<path d="M5586 3022 c-3 -5 1 -9 9 -9 8 0 12 4 9 9 -3 4 -7 8 -9 8 -2 0 -6 -4
-9 -8z"/>
<path d="M3986 3002 c-2 -4 4 -8 14 -8 10 0 16 4 14 8 -3 4 -9 8 -14 8 -5 0
-11 -4 -14 -8z"/>
<path d="M4385 2999 c-4 -6 -4 -13 -1 -16 3 -4 6 -1 6 6 0 7 5 9 12 5 7 -4 8
-3 4 4 -9 15 -13 15 -21 1z"/>
<path d="M5734 3002 c4 -3 14 -7 22 -8 9 -1 13 0 10 4 -4 3 -14 7 -22 8 -9 1
-13 0 -10 -4z"/>
<path d="M3950 2980 c0 -5 5 -10 11 -10 5 0 7 5 4 10 -3 6 -8 10 -11 10 -2 0
-4 -4 -4 -10z"/>
<path d="M5558 2983 c7 -3 16 -2 19 1 4 3 -2 6 -13 5 -11 0 -14 -3 -6 -6z"/>
<path d="M5800 2975 c-7 -9 -11 -17 -9 -20 3 -2 10 5 17 15 14 24 10 26 -8 5z"/>
<path d="M6286 2982 c-3 -5 1 -9 9 -9 8 0 12 4 9 9 -3 4 -7 8 -9 8 -2 0 -6 -4
-9 -8z"/>
<path d="M3835 2960 c-3 -5 -1 -10 4 -10 6 0 11 5 11 10 0 6 -2 10 -4 10 -3 0
-8 -4 -11 -10z"/>
<path d="M4466 2938 c3 -4 9 -8 15 -8 5 0 9 4 9 8 0 5 -7 9 -15 9 -8 0 -12 -4
-9 -9z"/>
<path d="M5530 2939 c0 -5 5 -7 10 -4 6 3 10 8 10 11 0 2 -4 4 -10 4 -5 0 -10
-5 -10 -11z"/>
<path d="M390 2936 c0 -2 8 -10 18 -17 15 -13 16 -12 3 4 -13 16 -21 21 -21
13z"/>
<path d="M3879 2913 c-13 -16 -12 -17 4 -4 16 13 21 21 13 21 -2 0 -10 -8 -17
-17z"/>
<path d="M5490 2899 c0 -5 5 -7 10 -4 6 3 10 8 10 11 0 2 -4 4 -10 4 -5 0 -10
-5 -10 -11z"/>
<path d="M3795 2861 c-3 -5 -2 -12 3 -15 5 -3 9 1 9 9 0 17 -3 19 -12 6z"/>
<path d="M6133 2855 c0 -8 4 -12 9 -9 5 3 6 10 3 15 -9 13 -12 11 -12 -6z"/>
<path d="M5395 2819 c-4 -6 -5 -12 -2 -15 2 -3 7 2 10 11 7 17 1 20 -8 4z"/>
<path d="M256 2802 c-2 -4 -1 -14 4 -22 7 -11 9 -9 7 8 -1 24 -3 26 -11 14z"/>
<path d="M3720 2800 c-12 -7 -10 -9 7 -7 12 0 19 5 17 9 -6 10 -6 10 -24 -2z"/>
<path d="M5356 2758 c3 -5 10 -6 15 -3 13 9 11 12 -6 12 -8 0 -12 -4 -9 -9z"/>
<path d="M5335 2721 c-3 -5 -2 -12 3 -15 5 -3 9 1 9 9 0 17 -3 19 -12 6z"/>
<path d="M3547 2679 c7 -7 15 -10 18 -7 3 3 -2 9 -12 12 -14 6 -15 5 -6 -5z"/>
<path d="M4210 2679 c0 -5 5 -7 10 -4 6 3 10 8 10 11 0 2 -4 4 -10 4 -5 0 -10
-5 -10 -11z"/>
<path d="M4336 2621 c-3 -4 6 -7 19 -7 14 0 22 2 19 5 -8 8 -34 10 -38 2z"/>
<path d="M4413 2605 c0 -7 6 -11 14 -8 7 3 13 6 13 8 0 2 -6 5 -13 8 -8 3 -14
-1 -14 -8z"/>
<path d="M4435 2573 c1 -10 -1 -23 -6 -28 -5 -7 0 -11 14 -12 12 0 17 1 10 4
-6 2 -9 15 -7 29 2 13 0 24 -5 24 -5 0 -8 -8 -6 -17z"/>
<path d="M309 2563 c-13 -16 -12 -17 4 -4 16 13 21 21 13 21 -2 0 -10 -8 -17
-17z"/>
<path d="M546 2558 c3 -5 10 -6 15 -3 13 9 11 12 -6 12 -8 0 -12 -4 -9 -9z"/>
<path d="M320 2520 c-9 -6 -10 -10 -3 -10 6 0 15 5 18 10 8 12 4 12 -15 0z"/>
<path d="M580 2526 c0 -2 8 -10 18 -17 15 -13 16 -12 3 4 -13 16 -21 21 -21
13z"/>
<path d="M3413 2505 c0 -8 4 -12 9 -9 5 3 6 10 3 15 -9 13 -12 11 -12 -6z"/>
<path d="M4435 2502 c3 -3 -1 -12 -7 -21 -8 -10 -4 -9 10 3 26 23 26 23 7 23
-8 0 -13 -3 -10 -5z"/>
<path d="M670 2479 c0 -5 5 -7 10 -4 6 3 10 8 10 11 0 2 -4 4 -10 4 -5 0 -10
-5 -10 -11z"/>
<path d="M4019 2473 c-13 -16 -12 -17 4 -4 16 13 21 21 13 21 -2 0 -10 -8 -17
-17z"/>
<path d="M3930 2459 c0 -5 5 -7 10 -4 6 3 10 8 10 11 0 2 -4 4 -10 4 -5 0 -10
-5 -10 -11z"/>
<path d="M650 2420 c0 -5 5 -10 11 -10 5 0 7 5 4 10 -3 6 -8 10 -11 10 -2 0
-4 -4 -4 -10z"/>
<path d="M3576 2422 c-2 -4 4 -8 14 -8 10 0 16 4 14 8 -3 4 -9 8 -14 8 -5 0
-11 -4 -14 -8z"/>
<path d="M3890 2419 c0 -5 5 -7 10 -4 6 3 10 8 10 11 0 2 -4 4 -10 4 -5 0 -10
-5 -10 -11z"/>
<path d="M655 2380 c3 -5 8 -10 11 -10 2 0 4 5 4 10 0 6 -5 10 -11 10 -5 0 -7
-4 -4 -10z"/>
<path d="M3506 2382 c-2 -4 4 -8 14 -8 10 0 16 4 14 8 -3 4 -9 8 -14 8 -5 0
-11 -4 -14 -8z"/>
<path d="M1393 2365 c0 -8 4 -12 9 -9 5 3 6 10 3 15 -9 13 -12 11 -12 -6z"/>
<path d="M5226 2358 c3 -5 10 -6 15 -3 13 9 11 12 -6 12 -8 0 -12 -4 -9 -9z"/>
<path d="M440 2340 c8 -5 20 -10 25 -10 6 0 3 5 -5 10 -8 5 -19 10 -25 10 -5
0 -3 -5 5 -10z"/>
<path d="M3730 2339 c0 -5 5 -7 10 -4 6 3 10 8 10 11 0 2 -4 4 -10 4 -5 0 -10
-5 -10 -11z"/>
<path d="M3775 2340 c3 -5 8 -10 11 -10 2 0 4 5 4 10 0 6 -5 10 -11 10 -5 0
-7 -4 -4 -10z"/>
<path d="M1316 2318 c3 -5 10 -6 15 -3 13 9 11 12 -6 12 -8 0 -12 -4 -9 -9z"/>
<path d="M453 2305 c0 -8 4 -12 9 -9 5 3 6 10 3 15 -9 13 -12 11 -12 -6z"/>
<path d="M730 2300 c0 -5 5 -10 11 -10 5 0 7 5 4 10 -3 6 -8 10 -11 10 -2 0
-4 -4 -4 -10z"/>
<path d="M1239 2268 c-7 -23 -4 -35 7 -35 9 0 11 4 4 12 -5 7 -7 15 -3 18 3 4
3 7 0 7 -4 0 -7 -1 -8 -2z"/>
<path d="M1610 2259 c0 -5 5 -7 10 -4 6 3 10 8 10 11 0 2 -4 4 -10 4 -5 0 -10
-5 -10 -11z"/>
<path d="M789 2243 c-13 -16 -12 -17 4 -4 9 7 17 15 17 17 0 8 -8 3 -21 -13z"/>
<path d="M1196 2247 c3 -10 9 -15 12 -12 3 3 0 11 -7 18 -10 9 -11 8 -5 -6z"/>
<path d="M476 2238 c3 -5 10 -6 15 -3 13 9 11 12 -6 12 -8 0 -12 -4 -9 -9z"/>
<path d="M4360 2235 c-7 -8 -17 -12 -23 -8 -6 4 -7 1 -3 -6 6 -9 13 -8 27 5
10 9 19 19 19 21 0 7 -8 2 -20 -12z"/>
<path d="M5147 2239 c7 -7 15 -10 18 -7 3 3 -2 9 -12 12 -14 6 -15 5 -6 -5z"/>
<path d="M5187 2239 c7 -7 15 -10 18 -7 3 3 -2 9 -12 12 -14 6 -15 5 -6 -5z"/>
<path d="M1606 2178 c3 -5 10 -6 15 -3 13 9 11 12 -6 12 -8 0 -12 -4 -9 -9z"/>
<path d="M1576 2127 c3 -10 9 -15 12 -12 3 3 0 11 -7 18 -10 9 -11 8 -5 -6z"/>
<path d="M610 2081 c0 -6 4 -13 10 -16 6 -3 7 1 4 9 -7 18 -14 21 -14 7z"/>
<path d="M880 2060 c-9 -6 -10 -10 -3 -10 6 0 15 5 18 10 8 12 4 12 -15 0z"/>
<path d="M595 2040 c-3 -5 -1 -10 4 -10 6 0 11 5 11 10 0 6 -2 10 -4 10 -3 0
-8 -4 -11 -10z"/>
<path d="M980 2040 c-9 -6 -10 -10 -3 -10 6 0 15 5 18 10 8 12 4 12 -15 0z"/>
<path d="M1546 2038 c3 -5 10 -6 15 -3 13 9 11 12 -6 12 -8 0 -12 -4 -9 -9z"/>
<path d="M5016 2033 c-6 -14 -5 -15 5 -6 7 7 10 15 7 18 -3 3 -9 -2 -12 -12z"/>
<path d="M1296 2022 c-2 -4 -1 -14 3 -21 6 -9 11 -10 15 -2 4 6 2 11 -4 11 -6
0 -8 5 -5 10 3 6 4 10 1 10 -3 0 -7 -4 -10 -8z"/>
<path d="M4273 2009 c-2 -23 3 -25 10 -4 4 8 3 16 -1 19 -4 3 -9 -4 -9 -15z"/>
<path d="M934 2000 c0 -13 4 -16 10 -10 7 7 7 13 0 20 -6 6 -10 3 -10 -10z"/>
<path d="M1555 2000 c3 -5 8 -10 11 -10 2 0 4 5 4 10 0 6 -5 10 -11 10 -5 0
-7 -4 -4 -10z"/>
<path d="M5010 2000 c0 -5 5 -10 11 -10 5 0 7 5 4 10 -3 6 -8 10 -11 10 -2 0
-4 -4 -4 -10z"/>
<path d="M910 1959 c0 -5 5 -7 10 -4 6 3 10 8 10 11 0 2 -4 4 -10 4 -5 0 -10
-5 -10 -11z"/>
<path d="M1266 1958 c3 -4 9 -8 15 -8 5 0 9 4 9 8 0 5 -7 9 -15 9 -8 0 -12 -4
-9 -9z"/>
<path d="M867 1946 c-4 -10 -3 -15 3 -11 6 3 10 1 10 -6 0 -7 3 -10 6 -6 3 3
2 13 -4 22 -8 16 -9 16 -15 1z"/>
<path d="M836 1913 c-6 -14 -5 -15 5 -6 7 7 10 15 7 18 -3 3 -9 -2 -12 -12z"/>
<path d="M1198 1903 c7 -3 16 -2 19 1 4 3 -2 6 -13 5 -11 0 -14 -3 -6 -6z"/>
<path d="M1270 1899 c0 -5 5 -7 10 -4 6 3 10 8 10 11 0 2 -4 4 -10 4 -5 0 -10
-5 -10 -11z"/>
<path d="M606 1878 c3 -5 10 -6 15 -3 13 9 11 12 -6 12 -8 0 -12 -4 -9 -9z"/>
<path d="M4175 1880 c3 -5 8 -10 11 -10 2 0 4 5 4 10 0 6 -5 10 -11 10 -5 0
-7 -4 -4 -10z"/>
<path d="M1116 1838 c3 -5 10 -6 15 -3 13 9 11 12 -6 12 -8 0 -12 -4 -9 -9z"/>
<path d="M1245 1840 c-3 -5 -1 -10 4 -10 6 0 11 5 11 10 0 6 -2 10 -4 10 -3 0
-8 -4 -11 -10z"/>
<path d="M4859 1833 c-12 -16 -12 -17 2 -6 9 7 20 9 24 5 5 -4 5 -1 1 6 -9 16
-11 15 -27 -5z"/>
<path d="M4116 1793 c-6 -14 -5 -15 5 -6 7 7 10 15 7 18 -3 3 -9 -2 -12 -12z"/>
<path d="M4841 1796 c-9 -11 -9 -16 1 -22 7 -4 10 -4 6 1 -4 4 -3 14 3 22 6 7
9 13 6 13 -2 0 -10 -6 -16 -14z"/>
<path d="M1606 1782 c-3 -5 1 -9 9 -9 8 0 12 4 9 9 -3 4 -7 8 -9 8 -2 0 -6 -4
-9 -8z"/>
<path d="M1190 1777 c0 -2 6 -10 14 -16 11 -9 16 -9 22 1 4 7 4 10 -1 6 -4 -4
-14 -3 -22 3 -7 6 -13 9 -13 6z"/>
<path d="M566 1742 c-3 -5 1 -9 9 -9 8 0 12 4 9 9 -3 4 -7 8 -9 8 -2 0 -6 -4
-9 -8z"/>
<path d="M1176 1738 c3 -5 10 -6 15 -3 13 9 11 12 -6 12 -8 0 -12 -4 -9 -9z"/>
<path d="M4025 1740 c-3 -6 1 -7 9 -4 18 7 21 14 7 14 -6 0 -13 -4 -16 -10z"/>
<path d="M4075 1740 c-3 -5 -1 -10 4 -10 6 0 11 5 11 10 0 6 -2 10 -4 10 -3 0
-8 -4 -11 -10z"/>
<path d="M1470 1736 c0 -2 8 -10 18 -17 15 -13 16 -12 3 4 -13 16 -21 21 -21
13z"/>
<path d="M4055 1700 c-3 -5 -1 -10 4 -10 6 0 11 5 11 10 0 6 -2 10 -4 10 -3 0
-8 -4 -11 -10z"/>
<path d="M1495 1690 c-4 -6 -10 -8 -14 -6 -4 3 -8 -1 -8 -9 0 -13 4 -12 19 2
18 16 22 23 14 23 -3 0 -8 -5 -11 -10z"/>
<path d="M1432 1661 c-11 -7 -10 -9 3 -14 9 -4 14 -3 10 2 -3 5 1 12 7 14 7 3
9 6 3 6 -5 0 -16 -3 -23 -8z"/>
<path d="M4706 1661 c-3 -4 4 -7 14 -6 27 2 33 10 10 12 -11 1 -22 -2 -24 -6z"/>
<path d="M1495 1650 c-4 -6 -10 -8 -14 -6 -4 3 -8 -4 -8 -15 -1 -10 3 -19 9
-19 6 0 8 3 5 7 -4 3 0 15 10 25 9 10 13 18 10 18 -3 0 -9 -5 -12 -10z"/>
<path d="M1935 1640 c3 -5 8 -10 11 -10 2 0 4 5 4 10 0 6 -5 10 -11 10 -5 0
-7 -4 -4 -10z"/>
<path d="M815 1620 c3 -5 8 -10 11 -10 2 0 4 5 4 10 0 6 -5 10 -11 10 -5 0 -7
-4 -4 -10z"/>
<path d="M3996 1618 c3 -5 10 -6 15 -3 13 9 11 12 -6 12 -8 0 -12 -4 -9 -9z"/>
<path d="M1402 1598 c-15 -15 -15 -28 -1 -28 5 0 8 4 4 9 -3 6 3 14 12 20 10
6 13 11 8 11 -6 0 -16 -5 -23 -12z"/>
<path d="M1430 1570 c-8 -5 -12 -11 -10 -14 3 -2 14 2 24 10 22 15 10 19 -14
4z"/>
<path d="M4615 1571 c-3 -5 -2 -12 3 -15 5 -3 9 1 9 9 0 17 -3 19 -12 6z"/>
<path d="M1890 1559 c0 -5 5 -7 10 -4 6 3 10 8 10 11 0 2 -4 4 -10 4 -5 0 -10
-5 -10 -11z"/>
<path d="M1069 1483 c-13 -16 -12 -17 4 -4 9 7 17 15 17 17 0 8 -8 3 -21 -13z"/>
<path d="M4546 1478 c3 -5 10 -6 15 -3 13 9 11 12 -6 12 -8 0 -12 -4 -9 -9z"/>
<path d="M3733 1465 c0 -8 4 -12 9 -9 5 3 6 10 3 15 -9 13 -12 11 -12 -6z"/>
<path d="M3775 1460 c-3 -5 -1 -10 4 -10 6 0 11 5 11 10 0 6 -2 10 -4 10 -3 0
-8 -4 -11 -10z"/>
<path d="M1656 1422 c-2 -4 -1 -14 4 -22 7 -11 9 -9 7 8 -1 24 -3 26 -11 14z"/>
<path d="M4440 1420 c-9 -6 -10 -10 -3 -10 6 0 15 5 18 10 8 12 4 12 -15 0z"/>
<path d="M1620 1411 c0 -7 -4 -10 -9 -6 -5 3 -13 0 -17 -6 -4 -7 -3 -9 4 -5 5
3 13 0 15 -6 4 -10 6 -9 6 1 1 11 4 11 19 0 16 -13 16 -13 2 6 -8 11 -16 22
-17 24 -2 2 -3 -1 -3 -8z"/>
<path d="M3655 1381 c-3 -5 -2 -12 3 -15 5 -3 9 1 9 9 0 17 -3 19 -12 6z"/>
<path d="M1510 1365 c0 -7 30 -13 34 -7 3 4 -4 9 -15 9 -10 1 -19 0 -19 -2z"/>
<path d="M1616 1362 c-3 -5 1 -9 9 -9 8 0 12 4 9 9 -3 4 -7 8 -9 8 -2 0 -6 -4
-9 -8z"/>
<path d="M1860 1366 c0 -2 8 -10 18 -17 15 -13 16 -12 3 4 -13 16 -21 21 -21
13z"/>
<path d="M3575 1340 c-3 -5 -1 -10 4 -10 6 0 11 5 11 10 0 6 -2 10 -4 10 -3 0
-8 -4 -11 -10z"/>
<path d="M1851 1333 c-1 -17 16 -25 25 -12 4 7 3 9 -4 5 -5 -3 -13 0 -15 6 -4
9 -6 10 -6 1z"/>
<path d="M1616 1302 c-3 -5 1 -9 9 -9 8 0 12 4 9 9 -3 4 -7 8 -9 8 -2 0 -6 -4
-9 -8z"/>
<path d="M1850 1290 c-9 -6 -10 -10 -3 -10 6 0 15 5 18 10 8 12 4 12 -15 0z"/>
<path d="M4250 1259 c0 -5 5 -7 10 -4 6 3 10 8 10 11 0 2 -4 4 -10 4 -5 0 -10
-5 -10 -11z"/>
<path d="M1895 1240 c3 -5 8 -10 11 -10 2 0 4 5 4 10 0 6 -5 10 -11 10 -5 0
-7 -4 -4 -10z"/>
<path d="M3266 1238 c3 -4 9 -8 15 -8 5 0 9 4 9 8 0 5 -7 9 -15 9 -8 0 -12 -4
-9 -9z"/>
<path d="M3336 1242 c-3 -5 1 -9 9 -9 8 0 12 4 9 9 -3 4 -7 8 -9 8 -2 0 -6 -4
-9 -8z"/>
<path d="M1920 1231 c0 -6 4 -13 10 -16 6 -3 7 1 4 9 -7 18 -14 21 -14 7z"/>
<path d="M2015 1220 c-3 -5 -1 -10 4 -10 6 0 11 5 11 10 0 6 -2 10 -4 10 -3 0
-8 -4 -11 -10z"/>
<path d="M4210 1220 c0 -5 5 -10 11 -10 5 0 7 5 4 10 -3 6 -8 10 -11 10 -2 0
-4 -4 -4 -10z"/>
<path d="M1335 1200 c3 -5 8 -10 11 -10 2 0 4 5 4 10 0 6 -5 10 -11 10 -5 0
-7 -4 -4 -10z"/>
<path d="M4146 1202 c-3 -5 1 -9 9 -9 8 0 12 4 9 9 -3 4 -7 8 -9 8 -2 0 -6 -4
-9 -8z"/>
<path d="M3090 1180 c0 -5 5 -10 11 -10 5 0 7 5 4 10 -3 6 -8 10 -11 10 -2 0
-4 -4 -4 -10z"/>
<path d="M4096 1158 c3 -5 10 -6 15 -3 13 9 11 12 -6 12 -8 0 -12 -4 -9 -9z"/>
<path d="M2887 1139 c7 -7 15 -10 18 -7 3 3 -2 9 -12 12 -14 6 -15 5 -6 -5z"/>
<path d="M2390 1136 c0 -2 8 -10 18 -17 15 -13 16 -12 3 4 -13 16 -21 21 -21
13z"/>
<path d="M2456 1118 c3 -5 10 -6 15 -3 13 9 11 12 -6 12 -8 0 -12 -4 -9 -9z"/>
<path d="M4035 1120 c3 -5 8 -10 11 -10 2 0 4 5 4 10 0 6 -5 10 -11 10 -5 0
-7 -4 -4 -10z"/>
<path d="M4096 1113 c-6 -14 -5 -15 5 -6 7 7 10 15 7 18 -3 3 -9 -2 -12 -12z"/>
<path d="M2690 1106 c0 -2 7 -7 16 -10 8 -3 12 -2 9 4 -6 10 -25 14 -25 6z"/>
<path d="M1230 1078 c0 -4 4 -8 9 -8 6 0 12 4 15 8 3 5 -1 9 -9 9 -8 0 -15 -4
-15 -9z"/>
<path d="M3876 1047 c3 -10 9 -15 12 -12 3 3 0 11 -7 18 -10 9 -11 8 -5 -6z"/>
<path d="M3856 993 c-6 -14 -5 -15 5 -6 7 7 10 15 7 18 -3 3 -9 -2 -12 -12z"/>
<path d="M3710 979 c0 -5 5 -7 10 -4 6 3 10 8 10 11 0 2 -4 4 -10 4 -5 0 -10
-5 -10 -11z"/>
<path d="M1950 959 c0 -5 5 -7 10 -4 6 3 10 8 10 11 0 2 -4 4 -10 4 -5 0 -10
-5 -10 -11z"/>
<path d="M1990 960 c0 -5 5 -10 11 -10 5 0 7 5 4 10 -3 6 -8 10 -11 10 -2 0
-4 -4 -4 -10z"/>
<path d="M3530 920 c0 -5 5 -10 11 -10 5 0 7 5 4 10 -3 6 -8 10 -11 10 -2 0
-4 -4 -4 -10z"/>
<path d="M3495 900 c3 -5 8 -10 11 -10 2 0 4 5 4 10 0 6 -5 10 -11 10 -5 0 -7
-4 -4 -10z"/>
<path d="M3396 867 c3 -10 9 -15 12 -12 3 3 0 11 -7 18 -10 9 -11 8 -5 -6z"/>
<path d="M3240 860 c-9 -6 -10 -10 -3 -10 6 0 15 5 18 10 8 12 4 12 -15 0z"/>
<path d="M3176 838 c3 -4 11 -5 19 -1 21 7 19 12 -4 10 -11 0 -18 -5 -15 -9z"/>
<path d="M2495 831 c-3 -5 -2 -12 3 -15 5 -3 9 1 9 9 0 17 -3 19 -12 6z"/>
<path d="M2690 799 c0 -5 5 -7 10 -4 6 3 10 8 10 11 0 2 -4 4 -10 4 -5 0 -10
-5 -10 -11z"/>
<path d="M2790 801 c0 -6 4 -13 10 -16 6 -3 7 1 4 9 -7 18 -14 21 -14 7z"/>
<path d="M2827 799 c7 -7 15 -10 18 -7 3 3 -2 9 -12 12 -14 6 -15 5 -6 -5z"/>
<path d="M3226 798 c3 -5 10 -6 15 -3 13 9 11 12 -6 12 -8 0 -12 -4 -9 -9z"/>
</g>
</svg>
